<?xml version="1.0" standalone="no"?>
<!DOCTYPE svg PUBLIC "-//W3C//DTD SVG 20010904//EN"
 "http://www.w3.org/TR/2001/REC-SVG-20010904/DTD/svg10.dtd">
<svg version="1.0" xmlns="http://www.w3.org/2000/svg"
 width="467.000000pt" height="403.000000pt" viewBox="0 0 467.000000 403.000000"
 preserveAspectRatio="xMidYMid meet">

<g transform="translate(0.000000,403.000000) scale(0.100000,-0.100000)"
fill="#000000" stroke="none">
<path d="M0 2015 l0 -2015 2335 0 2335 0 0 2015 0 2015 -2335 0 -2335 0 0
-2015z m2423 1784 c34 -18 117 -82 117 -91 0 -4 -16 -8 -35 -8 -50 0 -81 -19
-152 -92 -74 -78 -88 -117 -80 -233 3 -44 2 -88 -1 -97 -4 -9 -131 -147 -283
-305 -152 -158 -292 -305 -311 -325 l-35 -38 -89 0 c-125 0 -157 -11 -231 -82
-80 -78 -107 -130 -98 -195 15 -117 7 -116 97 -19 90 97 108 103 171 60 45
-30 97 -99 97 -127 0 -11 -36 -57 -82 -106 l-83 -86 64 -9 c90 -12 131 3 204
72 84 80 97 112 97 247 l0 110 168 175 c92 97 233 245 314 330 l147 155 113 5
c131 6 150 14 224 92 72 76 87 109 82 180 -2 32 -1 58 2 58 16 0 421 -332 414
-339 -5 -4 -31 -13 -59 -20 -260 -65 -509 -369 -565 -689 -6 -35 -15 -177 -20
-315 -5 -139 -12 -262 -15 -273 -5 -15 -13 -20 -24 -17 -15 4 -21 -9 -35 -84
-60 -306 -149 -562 -283 -813 -132 -247 -224 -370 -409 -549 l-136 -131 -348
0 c-344 0 -347 0 -380 23 -19 12 -43 38 -54 57 -21 35 -21 47 -24 972 l-2 938
-268 2 -267 3 -3 27 c-4 29 -63 -20 898 743 194 154 490 390 659 524 168 134
320 252 336 262 34 22 133 26 168 8z m172 -235 c36 -9 69 -21 74 -28 11 -14
41 -118 41 -143 0 -10 -24 -43 -54 -72 l-54 -54 -69 17 c-38 9 -73 20 -79 24
-11 7 -54 126 -54 146 0 16 105 126 119 126 7 0 41 -7 76 -16z m776 -532 c-5
-9 -28 -41 -50 -71 -26 -34 -39 -61 -36 -72 4 -10 -1 -21 -11 -27 -13 -7 -14
-13 -5 -30 9 -18 8 -23 -9 -32 -12 -6 -20 -21 -20 -35 0 -15 -6 -25 -14 -25
-8 0 -16 -10 -18 -22 -2 -16 -10 -23 -28 -23 -19 0 -26 -7 -34 -32 -5 -18 -14
-33 -19 -33 -15 0 -47 -31 -47 -46 0 -7 15 -22 34 -33 19 -12 42 -34 52 -49
25 -37 23 -115 -4 -177 l-22 -50 46 50 c94 102 200 288 229 400 9 33 19 106
22 163 3 56 8 102 10 102 2 0 79 -60 171 -133 733 -584 712 -566 712 -592 0
-14 -1 -26 -2 -27 -2 -1 -124 -5 -273 -8 l-270 -5 -3 -933 c-2 -899 -3 -935
-22 -971 -23 -47 -59 -71 -103 -71 l-34 0 -5 98 c-4 85 -12 117 -61 263 -60
174 -68 225 -42 286 24 58 20 80 -18 92 -19 7 -46 24 -61 40 -18 19 -34 27
-47 24 -18 -5 -19 3 -19 218 l0 224 -42 172 c-58 239 -68 233 -68 -37 0 -133
4 -210 10 -210 6 0 10 -28 10 -65 0 -63 -1 -65 -25 -65 -24 0 -25 2 -25 64 0
36 5 68 10 71 6 4 10 85 10 211 0 169 -2 204 -14 204 -10 0 -27 -50 -57 -172
l-43 -173 -4 -223 c-3 -164 -7 -222 -15 -219 -7 2 -29 -11 -50 -29 -20 -19
-45 -34 -56 -34 -37 0 -43 -24 -21 -79 30 -76 26 -126 -20 -246 -61 -161 -80
-239 -80 -332 l0 -83 -470 0 -470 0 98 97 c196 196 372 444 511 722 99 196
207 485 221 586 13 102 104 286 268 545 131 205 138 269 37 336 -58 39 -60 48
-16 88 27 25 27 29 -9 81 -26 37 -28 45 -15 55 9 8 13 21 9 32 -4 14 0 21 15
25 14 3 21 13 21 28 0 17 7 25 23 27 14 2 23 11 25 25 2 14 8 20 17 17 8 -3
20 4 27 15 7 12 18 21 25 21 7 0 36 32 64 70 l51 70 29 -21 c22 -16 27 -24 20
-37z m-493 -500 c17 -16 34 -42 37 -58 11 -50 14 -54 35 -54 52 0 96 -58 85
-109 -7 -32 -39 -65 -72 -75 -31 -10 -91 18 -105 48 -9 22 -18 26 -55 26 -82
0 -133 48 -133 125 0 78 49 124 131 125 38 0 53 -5 77 -28z m401 -1529 c0 -16
2 -72 5 -126 5 -92 8 -101 36 -133 73 -84 113 -218 114 -384 l1 -115 -180 0
-180 0 1 115 c1 167 41 300 115 385 30 34 31 37 34 157 2 68 4 124 4 126 1 1
12 2 26 2 21 0 25 -4 24 -27z"/>
<path d="M2529 2363 c-35 -42 -124 -137 -197 -210 -102 -102 -139 -133 -159
-133 -49 0 -312 -209 -498 -396 -264 -265 -441 -534 -554 -841 -42 -117 -50
-160 -29 -181 28 -28 102 -3 136 45 10 16 31 60 46 98 37 95 104 209 195 335
87 121 370 410 499 511 87 67 254 174 359 228 33 18 63 40 66 51 3 11 40 36
96 64 l91 46 0 98 c0 53 5 155 10 226 5 72 8 131 7 133 -2 1 -32 -32 -68 -74z"/>
<path d="M2738 2501 c-62 -56 -28 -152 55 -154 92 -3 128 126 47 168 -42 22
-66 19 -102 -14z"/>
</g>
</svg>
